<?xml version="1.0" encoding="utf-8"?>
<!-- Generator: Adobe Illustrator 24.1.1, SVG Export Plug-In . SVG Version: 6.00 Build 0)  -->
<svg version="1.1" id="Layer_1" xmlns="http://www.w3.org/2000/svg" xmlns:xlink="http://www.w3.org/1999/xlink" x="0px" y="0px"
	 viewBox="0 0 2880 1144.9" style="enable-background:new 0 0 2880 1144.9;" xml:space="preserve">
<style type="text/css">
	.st0{fill:#EF444E;}
	.st1{fill:#A43C3C;}
	.st2{fill:#2B2C2B;}
	.st3{fill:#AEAEAE;}
</style>
<g>
	<g>
		<path class="st0" d="M2226.6,351.2h115.5l0.6,88.8c0.1,24.1,21.9,43.6,48.7,43.6h75.9l0.6,89.6c0.1,24.1-21.4,43.6-48.2,43.6
			h-45.3c-26.7,0-48.5-19.5-48.7-43.6l-0.5-83.7h-97.7c-26.7,0-48.5-19.5-48.7-43.6l-0.5-51.1
			C2178.3,370.8,2199.9,351.2,2226.6,351.2z"/>
		<path class="st1" d="M2342.8,440l-0.6-88.8h75.9c26.7,0,48.5,19.5,48.7,43.6l0.6,88.8h-75.9C2364.7,483.6,2342.9,464.1,2342.8,440
			z"/>
	</g>
	<g>
		<g>
			<path class="st2" d="M255.1,618.6h52.1l37.1,124.5h0.7l33.4-124.5h38.9l33.1,124.5h0.7l37.5-124.5h52.1l-74.6,203.8H436
				l-38-132.2h-0.7l-38.6,132.2h-30.1L255.1,618.6z"/>
			<path class="st2" d="M607.7,742.4c2.2,13.2,21.3,41.9,56.2,41.9c21.7,0,37.8-9.2,47-26.1h51.4C750.5,794.9,712,829,663.8,829
				c-62.1,0-107.6-48.5-107.6-108c0-57.7,42.6-109.4,107.2-109.4c66.8,0,105.4,54.7,105.4,106.1c0,9.5-1.5,18-2.9,24.6H607.7V742.4z
				 M718.9,703.1c-5.5-32.7-29-46.6-55.1-46.6c-19.8,0-48.5,8.8-57.7,46.6H718.9z"/>
			<path class="st2" d="M1003.9,756c-16.5,45.5-54.4,73.1-102.1,73.1c-52.1,0-108.3-41.9-108.3-109.4c0-62.4,51.8-108,108-108
				c25.7,0,81.5,11.8,102.5,74.6h-55.1c-5.9-10.3-17.3-29.7-47.4-29.7c-29.7,0-59.1,22-59.1,63.9c0,34.9,24.6,63.9,61.3,63.9
				c16.2,0,32.3-7.7,45.2-28.3L1003.9,756L1003.9,756z"/>
			<path class="st2" d="M1024.1,720.7c0-61.7,50.3-109.1,108.7-109.1c57.7,0,108,45.9,108,108.3c0,66.8-51.4,109.1-108,109.1
				C1072.2,829,1024.1,779.1,1024.1,720.7z M1191.9,721.1c0-37.1-28.6-64.6-59.1-64.6c-25.3,0-59.9,21.7-59.9,64.3
				c0,38.6,29,63.5,59.9,63.5C1168.4,784.2,1191.9,753.4,1191.9,721.1z"/>
			<path class="st2" d="M1269.8,618.6h45.2v17.6c8.1-7.7,25-24.6,55.8-24.6c17.6,0,44.4,7.7,61.3,28.3
				c18.7,22.4,18.7,56.6,18.7,72.3v110.2H1402V721.8c0-16.9,0-65.4-41.1-65.4c-8.8,0-24.6,4.4-33.4,18c-8.8,12.5-8.8,33.8-8.8,51v97
				h-48.8L1269.8,618.6L1269.8,618.6z"/>
			<path class="st2" d="M1490.1,618.6h45.2v17.6c8.1-7.7,25-24.6,55.8-24.6c17.6,0,44.4,7.7,61.3,28.3
				c18.7,22.4,18.7,56.6,18.7,72.3v110.2h-48.8V721.8c0-16.9,0-65.4-41.1-65.4c-8.8,0-24.6,4.4-33.4,18c-8.8,12.5-8.8,33.8-8.8,51
				v97h-48.8L1490.1,618.6L1490.1,618.6z"/>
			<path class="st2" d="M1753.4,742.4c2.2,13.2,21.3,41.9,56.2,41.9c21.7,0,37.8-9.2,47-26.1h51.4c-11.8,36.7-50.3,70.9-98.4,70.9
				c-62.1,0-107.6-48.5-107.6-108c0-57.7,42.6-109.4,107.2-109.4c66.8,0,105.4,54.7,105.4,106.1c0,9.5-1.5,18-2.9,24.6H1753.4z
				 M1864.7,703.1c-5.5-32.7-29-46.6-55.1-46.6c-19.8,0-48.5,8.8-57.7,46.6H1864.7z"/>
			<path class="st2" d="M2149.7,756c-16.5,45.5-54.4,73.1-102.1,73.1c-52.1,0-108.3-41.9-108.3-109.4c0-62.4,51.8-108,108-108
				c25.7,0,81.5,11.8,102.5,74.6h-55.1c-5.9-10.3-17.3-29.7-47.4-29.7c-29.7,0-59.1,22-59.1,63.9c0,34.9,24.6,63.9,61.3,63.9
				c16.2,0,32.3-7.7,45.2-28.3L2149.7,756L2149.7,756z"/>
			<path class="st2" d="M2192.3,661.9h-23.9v-43.3h23.9v-67.9h48.8v67.9h29.4v43.3h-29.4v160.5h-48.8V661.9z"/>
		</g>
	</g>
	<g>
		<g>
			<path class="st3" d="M1274.5,953h-15.1v-8.4h-0.2c-3.1,5-10.3,10.7-22,10.7c-17.5,0-35.1-14.4-35.1-36.6
				c0-23.2,18.6-36.8,35.1-36.8c10,0,16,3.3,20.8,8.4v-29h16.5L1274.5,953L1274.5,953z M1238.9,940.1c12.4,0,20.3-11.2,20.3-21.6
				c0-11.3-8.7-21.6-20.3-21.6c-12.3,0-20.3,11.4-20.3,21.1C1218.6,930.8,1228.1,940.1,1238.9,940.1z"/>
			<path class="st3" d="M1286.3,861.3h16.5v15.1h-16.5V861.3z M1286.3,884.2h16.5V953h-16.5V884.2z"/>
			<path class="st3" d="M1386.8,884.2v56.2c0,33.1-24.6,40.7-37.6,40.7c-14.1,0-28.7-7.4-34.6-22.8h18.9c6.5,7.7,14.4,7.7,17,7.7
				c9.3,0,20.2-6.5,21.1-21.5l-0.2-0.2c-2.2,3.1-8.6,11-22.6,11c-16.7,0-35.2-14.3-35.2-37.3c0-21.6,17.6-36.1,35.1-36.1
				c14.1,0,20.1,8.1,22,10.8h0.2v-8.4h15.9V884.2z M1350,897c-9.9,0-20.1,8.1-20.1,21.1c0,14,10.5,22.1,20.6,22.1
				c9.9,0,19.7-8.4,19.7-22.2C1370.3,908.1,1362.3,897,1350,897z"/>
			<path class="st3" d="M1397.9,861.3h16.5v15.1h-16.5V861.3z M1397.9,884.2h16.5V953h-16.5V884.2z"/>
			<path class="st3" d="M1431.8,898.8h-8.1v-14.6h8.1v-22.9h16.5v22.9h9.9v14.6h-9.9V953h-16.5V898.8z"/>
			<path class="st3" d="M1534.3,953h-15.1v-8.6c-5.2,6.2-15.4,10.8-24.1,10.8c-17.7,0-33.5-14.1-33.5-37.1
				c0-21.1,15.4-36.3,34.5-36.3c14,0,22.3,10,22.8,11h0.2v-8.7h15.1L1534.3,953L1534.3,953z M1498.6,897c-13.5,0-20.5,11.7-20.5,22
				c0,11.7,8.7,21.2,20.5,21.2c11.4,0,20.1-8.9,20.1-21.7C1518.7,904.2,1508.4,897,1498.6,897z"/>
			<path class="st3" d="M1546.9,861.3h16.5V953h-16.5V861.3z"/>
			<path class="st3" d="M1606,884.2h17.6l12.5,42h0.2l11.3-42h13.1l11.2,42h0.2l12.7-42h17.6l-25.2,68.8H1667l-12.9-44.7h-0.2
				l-13,44.7h-10.2L1606,884.2z"/>
			<path class="st3" d="M1707,918.7c0-20.8,17-36.8,36.7-36.8c19.5,0,36.5,15.5,36.5,36.6c0,22.6-17.4,36.8-36.5,36.8
				C1723.2,955.3,1707,938.4,1707,918.7z M1763.7,918.8c0-12.5-9.7-21.8-20-21.8c-8.6,0-20.2,7.3-20.2,21.7c0,13,9.8,21.5,20.2,21.5
				C1755.7,940.1,1763.7,929.7,1763.7,918.8z"/>
			<path class="st3" d="M1791.1,884.2h15.1v6.1h0.2c3.1-4.5,6.2-8.4,14.8-8.4h1.4v16c-15,0.6-15,12.4-15,16.5V953h-16.5V884.2z"/>
			<path class="st3" d="M1832.9,861.3h16.5v55.3h0.2l22-32.4h19l-24.8,33.7l28,35.1H1873l-23.3-32.3h-0.2V953H1833L1832.9,861.3
				L1832.9,861.3z"/>
			<path class="st3" d="M1900.7,884.2h15.1v8.1h0.2c8.2-10.4,19.1-10.4,22.3-10.4c22.6,0,34.5,19.5,34.5,36.5c0,20.3-15,37-34.5,37
				c-11.7,0-16.9-4.7-21.2-8.8V976h-16.5L1900.7,884.2L1900.7,884.2z M1936.3,940.1c8.8,0,20.1-7.4,20.1-21.6
				c0-12.7-9.7-21.6-19.8-21.6c-10.3,0-20.3,8.3-20.3,21.6C1916.2,933.8,1928.5,940.1,1936.3,940.1z"/>
			<path class="st3" d="M1983.5,861.3h16.5V953h-16.5V861.3z"/>
			<path class="st3" d="M2082.6,953h-15.1v-8.6c-5.2,6.2-15.4,10.8-24.1,10.8c-17.7,0-33.5-14.1-33.5-37.1
				c0-21.1,15.4-36.3,34.5-36.3c14,0,22.3,10,22.8,11h0.2v-8.7h15.1V953H2082.6z M2046.8,897c-13.5,0-20.5,11.7-20.5,22
				c0,11.7,8.7,21.2,20.5,21.2c11.4,0,20.1-8.9,20.1-21.7C2066.9,904.2,2056.6,897,2046.8,897z"/>
			<path class="st3" d="M2164.1,930.6c-5.6,15.4-18.4,24.7-34.5,24.7c-17.6,0-36.6-14.1-36.6-37c0-21.1,17.5-36.5,36.5-36.5
				c8.7,0,27.5,4,34.6,25.2h-18.6c-2-3.5-5.8-10-16-10c-10,0-20,7.4-20,21.6c0,11.8,8.3,21.6,20.7,21.6c5.5,0,10.9-2.6,15.3-9.6
				H2164.1z"/>
			<path class="st3" d="M2189,926c0.7,4.5,7.2,14.1,19,14.1c7.3,0,12.8-3.1,15.9-8.8h17.4c-4,12.4-17,23.9-33.2,23.9
				c-21,0-36.3-16.4-36.3-36.5c0-19.5,14.4-37,36.2-37c22.6,0,35.6,18.5,35.6,35.8c0,3.2-0.5,6.1-1,8.3H2189V926z M2226.6,912.7
				c-1.9-11-9.8-15.8-18.6-15.8c-6.7,0-16.4,3-19.5,15.8H2226.6z"/>
		</g>
	</g>
</g>
</svg>
